<svg width="1080" height="1080" xmlns="http://www.w3.org/2000/svg" preserveAspectRatio="xMidYMid meet" version="1.0">
 <g>
  <title>Layer 1</title>
  <path id="svg_2" d="m400.00001,334.49999l-48.5,48.5l42.3,0l42.2,0l0,183.6l0,183.6l-47.2,-0.4c-47.1,-0.5 -47.3,-0.5 -57,-3.1c-32.3,-8.6 -51.5,-32.4 -56.9,-70.2c-2.5,-17.8 0.9,-43.6 7.5,-57.7c6.7,-14.1 19.7,-28.5 32.6,-36.1c26.2,-15.3 68.2,-12.1 97.8,7.4l3.2,2.1l0,-24.6l0,-24.6l-2.4,-1.5c-4.2,-2.8 -18.8,-8.3 -29.1,-11.1c-8.6,-2.3 -12.6,-2.7 -28,-3.1c-15.7,-0.4 -19.3,-0.2 -28.5,1.7c-19.3,3.9 -34.2,10.3 -49.2,21c-30.7,21.9 -49.9,53 -55.5,90c-2.1,14 -1.3,39.5 1.6,53c5.7,25.7 15.7,44.9 33.2,63.3c14.3,15.2 30.8,25.6 51.4,32.5c19.3,6.5 20.4,6.5 102.3,7l74.2,0.3l0,-206.5l0,-206.6l19,0l19,0l0,-23l0,-23l-37.5,0l-37.5,0l-0.2,-25.5l-0.3,-25.5l-48.5,48.5z" fill="#fff"/>
  <path id="svg_3" d="m593.50001,453.59999c-3.8,0.8 -11.2,3.5 -16.3,6c-7.8,3.8 -10.7,5.9 -18,13.2c-9.8,9.8 -15,17.9 -18.9,29.7c-2.5,7.4 -2.7,9.2 -2.7,24.5c0,15.3 0.2,17.1 2.7,24.5c3.8,11.3 9,19.7 17.7,28.6c12.4,12.5 25.3,18.9 42.7,21.1c38.2,4.9 71.9,-19.1 80.8,-57.2c2.2,-9.4 1.9,-25.9 -0.5,-35.6c-3.4,-13.5 -9.1,-23.6 -19.5,-34c-10,-10.1 -16.5,-14.2 -29.3,-18.6c-11,-3.7 -27.6,-4.7 -38.7,-2.2zm26.9,24.9c9.1,1.9 14.5,4.7 21,10.6c5.7,5.2 10.5,13.2 13,21.8c2.1,7.1 2.1,23.7 0.1,31.6c-7.3,28 -35.2,41.3 -64,30.4c-4.6,-1.7 -7.6,-3.8 -12.5,-8.8c-10.5,-10.6 -14,-19.9 -14,-37.1c0,-5.9 0.6,-12.8 1.4,-15.8c6.6,-24.6 29.3,-38.1 55,-32.7z" fill="#e83120"/>
  <path id="svg_4" d="m767.50001,453.59999c-3.8,0.8 -11.2,3.5 -16.3,6c-7.8,3.8 -10.7,5.9 -18,13.2c-9.8,9.8 -15,17.9 -18.9,29.7c-2.5,7.4 -2.7,9.2 -2.7,24.5c0,15.3 0.2,17.1 2.7,24.5c3.8,11.3 9,19.7 17.7,28.6c12.4,12.5 25.3,18.9 42.7,21.1c38.2,4.9 71.9,-19.1 80.8,-57.2c2.2,-9.4 1.9,-25.9 -0.5,-35.6c-3.4,-13.5 -9.1,-23.6 -19.5,-34c-10,-10.1 -16.5,-14.2 -29.3,-18.6c-11,-3.7 -27.6,-4.7 -38.7,-2.2zm26.9,24.9c9.1,1.9 14.5,4.7 21,10.6c5.7,5.2 10.5,13.2 13,21.8c2.1,7.1 2.1,23.7 0.1,31.6c-7.3,28 -35.2,41.3 -64,30.4c-4.6,-1.7 -7.6,-3.8 -12.5,-8.8c-10.5,-10.6 -14,-19.9 -14,-37.1c0,-5.9 0.6,-12.8 1.4,-15.8c6.6,-24.6 29.3,-38.1 55,-32.7z" fill="#ffd23f"/>
  <path id="svg_5" d="m410.50001,456.99999c-0.3,0.6 0.1,0.7 0.9,0.4c1.8,-0.7 2.1,-1.4 0.7,-1.4c-0.6,0 -1.3,0.4 -1.6,1z"/>
  <path id="svg_6" d="m589.50001,646.59999c-3.8,0.8 -11.2,3.5 -16.3,6c-7.8,3.8 -10.7,5.9 -18,13.2c-9.8,9.8 -15,17.9 -18.9,29.7c-2.5,7.4 -2.7,9.2 -2.7,24.5c0,15.3 0.2,17.1 2.7,24.5c3.8,11.3 9,19.7 17.7,28.6c12.4,12.5 25.3,18.9 42.7,21.1c38.2,4.9 71.9,-19.1 80.8,-57.2c2.2,-9.4 1.9,-25.9 -0.5,-35.6c-3.4,-13.5 -9.1,-23.6 -19.5,-34c-10,-10.1 -16.5,-14.2 -29.3,-18.6c-11,-3.7 -27.6,-4.7 -38.7,-2.2zm26.9,24.9c9.1,1.9 14.5,4.7 21,10.6c5.7,5.2 10.5,13.2 13,21.8c2.1,7.1 2.1,23.7 0.1,31.6c-7.3,28 -35.2,41.3 -64,30.4c-4.6,-1.7 -7.6,-3.8 -12.5,-8.8c-10.5,-10.6 -14,-19.9 -14,-37.1c0,-5.9 0.6,-12.8 1.4,-15.8c6.6,-24.6 29.3,-38.1 55,-32.7z" fill="#62bbc1"/>
  <g transform="rotate(47.5779 784.294 527.027)" id="svg_13" stroke="null">
   <rect fill="#3ea32b" id="svg_11" height="24.59547" width="47.18039" y="536.65915" x="760.58988" stroke="null"/>
   <rect fill="#3ea32b" id="svg_12" height="68.23841" width="22.41069" y="492.7996" x="785.58745" stroke="null"/>
  </g>
 </g>

</svg>